<?xml version="1.0" standalone="no"?>
<!DOCTYPE svg PUBLIC "-//W3C//DTD SVG 20010904//EN"
 "http://www.w3.org/TR/2001/REC-SVG-20010904/DTD/svg10.dtd">
<svg version="1.0" xmlns="http://www.w3.org/2000/svg"
 width="96.000000pt" height="96.000000pt" viewBox="0 0 96.000000 96.000000"
 preserveAspectRatio="xMidYMid meet">
<metadata>
Created by potrace 1.14, written by Peter Selinger 2001-2017
</metadata>
<g transform="translate(0.000000,96.000000) scale(0.100000,-0.100000)"
fill="#000000" stroke="none">
<path d="M440 945 c-17 -21 -39 -129 -40 -192 0 -40 5 -58 20 -73 11 -11 20
-30 20 -43 0 -50 -35 -136 -87 -215 -71 -108 -82 -135 -80 -203 2 -51 0 -55
-18 -51 -82 21 -120 115 -82 203 8 19 35 61 61 93 65 83 75 132 45 209 -23 57
-69 17 -69 -60 0 -51 -10 -70 -68 -133 -12 -14 -35 -50 -50 -80 -36 -74 -36
-147 2 -216 37 -68 81 -96 158 -100 121 -7 211 -26 241 -51 48 -39 97 -42 132
-7 8 9 34 15 62 15 102 2 179 64 169 139 -2 19 -20 85 -39 145 -19 61 -49 161
-67 223 l-33 113 27 48 c20 37 26 63 26 109 0 82 -9 121 -32 133 -16 8 -26 2
-66 -39 -46 -48 -50 -50 -93 -45 -63 6 -69 9 -81 43 -13 39 -41 55 -58 35z"/>
</g>
</svg>
